<svg width="44" height="44" viewBox="0 0 44 44" fill="none" xmlns="http://www.w3.org/2000/svg">
<rect width="44" height="44" rx="12" fill="url(#paint0_radial_734_23248)"/>
<path d="M20.8246 12.6671V15.3343L18.5189 14.0004L16.2139 12.6671L18.5189 11.3332L20.8246 9.99988V12.6671Z" fill="white"/>
<path d="M20.8246 18.0002V20.6675L18.5189 19.3335L16.2139 18.0002L18.5189 16.6663L20.8246 15.333V18.0002Z" fill="white"/>
<path d="M16.2323 15.3335V18.0007L13.9266 16.6668L11.6216 15.3335L13.9266 13.9996L16.2323 12.6663V15.3335Z" fill="white"/>
<path d="M20.8246 23.3332V26.0005L18.5189 24.6665L16.2139 23.3332L18.5189 21.9993L20.8246 20.666V23.3332Z" fill="white"/>
<path d="M32.3797 21.926V24.5932L30.0741 23.2593L27.769 21.926L30.0741 20.5921L32.3797 19.2588V21.926Z" fill="white"/>
<path d="M16.2323 20.6667V23.334L13.9266 22L11.6216 20.6667L13.9266 19.3328L16.2323 17.9995V20.6667Z" fill="white"/>
<path d="M27.786 19.2593V21.9265L25.4803 20.5926L23.1753 19.2593L25.4803 17.9253L27.786 16.592V19.2593Z" fill="white"/>
<path d="M20.8246 28.6665V31.3337L18.5189 29.9998L16.2139 28.6665L18.5189 27.3326L20.8246 25.9993V28.6665Z" fill="white"/>
<path d="M32.3797 27.259V29.9263L30.0741 28.5923L27.769 27.259L30.0741 25.9251L32.3797 24.5918V27.259Z" fill="white"/>
<path d="M16.2323 25.9997V28.667L13.9266 27.3331L11.6216 25.9997L13.9266 24.6658L16.2323 23.3325V25.9997Z" fill="white"/>
<path d="M27.786 24.5925V27.2598L25.4803 25.9258L23.1753 24.5925L25.4803 23.2586L27.786 21.9253V24.5925Z" fill="white"/>
<path d="M16.2323 31.3329V34.0001L13.9266 32.6662L11.6216 31.3329L13.9266 29.999L16.2323 28.6656V31.3329Z" fill="white"/>
<path d="M27.786 29.9255V32.5928L25.4803 31.2588L23.1753 29.9255L25.4803 28.5916L27.786 27.2583V29.9255Z" fill="white"/>
<path d="M16.2145 31.3329V34.0001L18.5202 32.6662L20.8252 31.3329L18.5202 29.999L16.2145 28.6656V31.3329Z" fill="white"/>
<path d="M27.7692 29.9255V32.5928L30.0748 31.2588L32.3799 29.9255L30.0748 28.5916L27.7692 27.2583V29.9255Z" fill="white"/>
<path d="M16.2145 25.9997V28.667L18.5202 27.3331L20.8252 25.9997L18.5202 24.6658L16.2145 23.3325V25.9997Z" fill="white"/>
<path d="M27.7692 24.5925V27.2598L30.0748 25.9258L32.3799 24.5925L30.0748 23.2586L27.7692 21.9253V24.5925Z" fill="white"/>
<path d="M11.6207 23.3332V26.0005L13.9264 24.6665L16.2314 23.3332L13.9264 21.9993L11.6207 20.666V23.3332Z" fill="white"/>
<path d="M23.1759 21.926V24.5932L25.4816 23.2593L27.7866 21.926L25.4816 20.5921L23.1759 19.2588V21.926Z" fill="white"/>
<path d="M11.6207 28.6665V31.3337L13.9264 29.9998L16.2314 28.6665L13.9264 27.3326L11.6207 25.9993V28.6665Z" fill="white"/>
<path d="M23.1759 27.259V29.9263L25.4816 28.5923L27.7866 27.259L25.4816 25.9251L23.1759 24.5918V27.259Z" fill="white"/>
<path d="M16.2145 20.6667V23.334L18.5202 22L20.8252 20.6667L18.5202 19.3328L16.2145 17.9995V20.6667Z" fill="white"/>
<path d="M27.7692 19.2593V21.9265L30.0748 20.5926L32.3799 19.2593L30.0748 17.9253L27.7692 16.592V19.2593Z" fill="white"/>
<path d="M11.6207 18.0002V20.6675L13.9264 19.3335L16.2314 18.0002L13.9264 16.6663L11.6207 15.333V18.0002Z" fill="white"/>
<path d="M23.1759 16.5928V19.26L25.4816 17.9261L27.7866 16.5928L25.4816 15.2588L23.1759 13.9255V16.5928Z" fill="white"/>
<path d="M16.2145 15.3335V18.0007L18.5202 16.6668L20.8252 15.3335L18.5202 13.9996L16.2145 12.6663V15.3335Z" fill="white"/>
<defs>
<radialGradient id="paint0_radial_734_23248" cx="0" cy="0" r="1" gradientUnits="userSpaceOnUse" gradientTransform="translate(22 42.6148) rotate(-90) scale(66.6926 62.144)">
<stop stop-color="#0C3461"/>
<stop offset="0.545966" stop-color="#1769CB"/>
<stop offset="1" stop-color="#0C3461"/>
</radialGradient>
</defs>
</svg>
